<svg width="213" height="87" viewBox="0 0 213 87" fill="none" xmlns="http://www.w3.org/2000/svg">
<rect x="21.8039" y="10" width="57" height="45.6952" rx="10" transform="rotate(28.5 21.8039 10)" fill="#2EA4FF"/>
<rect x="21.8039" y="10" width="57" height="45.6952" rx="10" transform="rotate(28.5 21.8039 10)" fill="#2EA4FF"/>
<path d="M98.68 50.32C97.48 50.32 96.53 50.2 95.83 49.96C95.13 49.72 94.68 49.49 94.48 49.27L95.08 44.62V43.72C95.32 44.24 95.65 44.78 96.07 45.34C96.47 45.9 96.94 46.37 97.48 46.75C98.02 47.13 98.58 47.32 99.16 47.32C99.56 47.32 99.92 47.23 100.24 47.05C100.58 46.89 100.89 46.63 101.17 46.27C101.47 45.91 101.76 45.46 102.04 44.92C102.44 44.12 102.69 43.57 102.79 43.27C102.67 43.11 102.47 42.74 102.19 42.16C101.93 41.58 101.61 40.88 101.23 40.06C100.87 39.22 100.48 38.34 100.06 37.42C99.66 36.48 99.27 35.57 98.89 34.69C98.53 33.81 98.2 33.03 97.9 32.35C97.62 31.67 97.41 31.17 97.27 30.85C96.99 30.17 96.71 29.69 96.43 29.41C96.13 29.11 95.9 28.96 95.74 28.96H101.89C101.79 28.96 101.72 29.1 101.68 29.38C101.64 29.66 101.71 30.15 101.89 30.85C101.99 31.23 102.15 31.77 102.37 32.47C102.59 33.15 102.84 33.9 103.12 34.72C103.42 35.54 103.72 36.37 104.02 37.21C104.34 38.05 104.63 38.82 104.89 39.52H104.92C105.2 38.78 105.49 37.98 105.79 37.12C106.11 36.24 106.42 35.38 106.72 34.54C107.04 33.7 107.31 32.95 107.53 32.29C107.77 31.63 107.95 31.13 108.07 30.79C108.29 30.11 108.38 29.64 108.34 29.38C108.3 29.1 108.21 28.96 108.07 28.96H114.04C113.88 28.96 113.66 29.1 113.38 29.38C113.12 29.64 112.87 30.1 112.63 30.76C112.49 31.12 112.26 31.71 111.94 32.53C111.62 33.35 111.24 34.29 110.8 35.35C110.36 36.41 109.9 37.5 109.42 38.62C108.94 39.74 108.47 40.8 108.01 41.8C107.57 42.78 107.18 43.59 106.84 44.23C106.16 45.55 105.45 46.66 104.71 47.56C103.97 48.46 103.12 49.14 102.16 49.6C101.2 50.08 100.04 50.32 98.68 50.32ZM121.46 43.3C119.46 43.3 117.89 42.98 116.75 42.34C115.63 41.7 114.84 40.83 114.38 39.73C113.94 38.63 113.72 37.39 113.72 36.01C113.72 34.61 113.95 33.36 114.41 32.26C114.89 31.16 115.69 30.29 116.81 29.65C117.93 28.99 119.48 28.66 121.46 28.66C123.44 28.66 124.99 28.99 126.11 29.65C127.23 30.29 128.02 31.16 128.48 32.26C128.96 33.36 129.2 34.61 129.2 36.01C129.2 37.39 128.97 38.63 128.51 39.73C128.07 40.83 127.29 41.7 126.17 42.34C125.05 42.98 123.48 43.3 121.46 43.3ZM121.46 40.27C122.3 40.27 122.97 40.15 123.47 39.91C123.99 39.65 124.36 39.21 124.58 38.59C124.82 37.97 124.94 37.11 124.94 36.01C124.94 34.91 124.82 34.05 124.58 33.43C124.36 32.79 123.99 32.34 123.47 32.08C122.97 31.8 122.3 31.66 121.46 31.66C120.62 31.66 119.94 31.8 119.42 32.08C118.92 32.36 118.55 32.82 118.31 33.46C118.09 34.1 117.98 34.96 117.98 36.04C117.98 37.1 118.09 37.94 118.31 38.56C118.55 39.18 118.92 39.62 119.42 39.88C119.94 40.14 120.62 40.27 121.46 40.27ZM137.485 43.3C136.325 43.3 135.335 43.1 134.515 42.7C133.695 42.28 133.075 41.57 132.655 40.57C132.235 39.55 132.025 38.14 132.025 36.34V30.76C132.025 30.12 131.955 29.66 131.815 29.38C131.695 29.1 131.565 28.96 131.425 28.96H136.945C136.805 28.96 136.655 29.1 136.495 29.38C136.355 29.66 136.285 30.12 136.285 30.76V36.76C136.285 38.02 136.515 38.92 136.975 39.46C137.455 40 138.005 40.27 138.625 40.27C139.505 40.27 140.185 40.07 140.665 39.67C141.145 39.25 141.485 38.71 141.685 38.05C141.885 37.37 141.985 36.66 141.985 35.92V30.76C141.985 30.12 141.915 29.67 141.775 29.41C141.655 29.13 141.525 28.98 141.385 28.96L146.245 28.96V41.2C146.245 41.84 146.305 42.3 146.425 42.58C146.565 42.86 146.705 43 146.845 43H141.985V41.83L142.045 41.23L141.985 41.17C141.785 41.47 141.535 41.75 141.235 42.01C140.935 42.27 140.595 42.5 140.215 42.7C139.835 42.88 139.415 43.02 138.955 43.12C138.495 43.24 138.005 43.3 137.485 43.3ZM164.214 43.3C162.134 43.3 160.494 42.98 159.294 42.34C158.114 41.7 157.284 40.83 156.804 39.73C156.324 38.63 156.084 37.39 156.084 36.01C156.084 33.57 156.744 31.74 158.064 30.52C159.404 29.3 161.354 28.69 163.914 28.69C165.254 28.69 166.474 28.79 167.574 28.99C168.694 29.19 169.514 29.38 170.034 29.56V30.46L170.634 33.67C170.194 33.25 169.394 32.82 168.234 32.38C167.094 31.92 165.724 31.69 164.124 31.69C163.264 31.69 162.544 31.85 161.964 32.17C161.404 32.47 160.984 32.94 160.704 33.58C160.444 34.22 160.314 35.04 160.314 36.04C160.314 37.02 160.464 37.82 160.764 38.44C161.064 39.06 161.554 39.51 162.234 39.79C162.914 40.07 163.814 40.21 164.934 40.21C166.354 40.21 167.524 40.03 168.444 39.67C169.384 39.29 170.014 38.92 170.334 38.56V39.46L170.634 41.86C170.254 42.18 169.504 42.5 168.384 42.82C167.284 43.14 165.894 43.3 164.214 43.3ZM178.934 43.3C177.134 43.3 175.694 42.95 174.614 42.25C173.554 41.53 173.024 40.38 173.024 38.8C173.024 37.7 173.304 36.81 173.864 36.13C174.424 35.45 175.184 34.95 176.144 34.63C177.124 34.29 178.234 34.12 179.474 34.12C180.394 34.12 181.174 34.2 181.814 34.36C182.474 34.52 183.004 34.69 183.404 34.87C183.804 35.05 184.064 35.18 184.184 35.26C184.184 34.42 184.094 33.74 183.914 33.22C183.734 32.68 183.404 32.29 182.924 32.05C182.464 31.79 181.814 31.66 180.974 31.66C179.754 31.66 178.674 31.78 177.734 32.02C176.794 32.26 176.024 32.54 175.424 32.86C174.844 33.18 174.444 33.45 174.224 33.67V32.77L173.924 29.83C174.064 29.75 174.434 29.62 175.034 29.44C175.634 29.26 176.454 29.09 177.494 28.93C178.534 28.75 179.774 28.66 181.214 28.66C183.194 28.66 184.704 28.95 185.744 29.53C186.784 30.09 187.494 30.9 187.874 31.96C188.274 33.02 188.474 34.3 188.474 35.8V41.2C188.474 41.76 188.534 42.17 188.654 42.43C188.794 42.67 188.934 42.86 189.074 43H184.214V42.37L184.274 41.8L184.214 41.74C184.054 41.92 183.824 42.1 183.524 42.28C183.224 42.46 182.854 42.63 182.414 42.79C181.974 42.93 181.464 43.05 180.884 43.15C180.304 43.25 179.654 43.3 178.934 43.3ZM180.344 40.27C181.184 40.27 181.884 40.21 182.444 40.09C183.024 39.95 183.464 39.77 183.764 39.55C184.064 39.31 184.214 39.03 184.214 38.71C184.214 38.25 183.864 37.87 183.164 37.57C182.484 37.27 181.554 37.12 180.374 37.12C179.234 37.12 178.424 37.28 177.944 37.6C177.484 37.92 177.254 38.32 177.254 38.8C177.254 39.4 177.524 39.8 178.064 40C178.604 40.18 179.364 40.27 180.344 40.27ZM191.543 43C191.683 43 191.813 42.86 191.933 42.58C192.073 42.3 192.143 41.84 192.143 41.2V31.06C192.143 30.42 192.073 29.97 191.933 29.71C191.813 29.43 191.683 29.28 191.543 29.26C192.423 29.26 193.323 29.2 194.243 29.08C195.163 28.94 195.883 28.8 196.403 28.66V30.49L196.343 30.88L196.403 30.94C196.463 30.8 196.653 30.55 196.973 30.19C197.293 29.83 197.753 29.49 198.353 29.17C198.953 28.83 199.693 28.66 200.573 28.66C202.433 28.66 203.853 29.19 204.833 30.25C205.833 31.31 206.333 32.97 206.333 35.23V41.2C206.333 41.84 206.393 42.3 206.513 42.58C206.653 42.86 206.793 43 206.933 43H201.473C201.613 43 201.743 42.86 201.863 42.58C202.003 42.3 202.073 41.84 202.073 41.2V35.32C202.073 34.38 201.973 33.65 201.773 33.13C201.573 32.59 201.293 32.21 200.933 31.99C200.593 31.77 200.193 31.66 199.733 31.66C199.173 31.66 198.633 31.8 198.113 32.08C197.613 32.34 197.203 32.76 196.883 33.34C196.563 33.9 196.403 34.65 196.403 35.59V41.2C196.403 41.84 196.463 42.3 196.583 42.58C196.723 42.86 196.863 43 197.003 43L191.543 43Z" fill="white"/>
<path d="M98.68 50.32C97.48 50.32 96.53 50.2 95.83 49.96C95.13 49.72 94.68 49.49 94.48 49.27L95.08 44.62V43.72C95.32 44.24 95.65 44.78 96.07 45.34C96.47 45.9 96.94 46.37 97.48 46.75C98.02 47.13 98.58 47.32 99.16 47.32C99.56 47.32 99.92 47.23 100.24 47.05C100.58 46.89 100.89 46.63 101.17 46.27C101.47 45.91 101.76 45.46 102.04 44.92C102.44 44.12 102.69 43.57 102.79 43.27C102.67 43.11 102.47 42.74 102.19 42.16C101.93 41.58 101.61 40.88 101.23 40.06C100.87 39.22 100.48 38.34 100.06 37.42C99.66 36.48 99.27 35.57 98.89 34.69C98.53 33.81 98.2 33.03 97.9 32.35C97.62 31.67 97.41 31.17 97.27 30.85C96.99 30.17 96.71 29.69 96.43 29.41C96.13 29.11 95.9 28.96 95.74 28.96H101.89C101.79 28.96 101.72 29.1 101.68 29.38C101.64 29.66 101.71 30.15 101.89 30.85C101.99 31.23 102.15 31.77 102.37 32.47C102.59 33.15 102.84 33.9 103.12 34.72C103.42 35.54 103.72 36.37 104.02 37.21C104.34 38.05 104.63 38.82 104.89 39.52H104.92C105.2 38.78 105.49 37.98 105.79 37.12C106.11 36.24 106.42 35.38 106.72 34.54C107.04 33.7 107.31 32.95 107.53 32.29C107.77 31.63 107.95 31.13 108.07 30.79C108.29 30.11 108.38 29.64 108.34 29.38C108.3 29.1 108.21 28.96 108.07 28.96H114.04C113.88 28.96 113.66 29.1 113.38 29.38C113.12 29.64 112.87 30.1 112.63 30.76C112.49 31.12 112.26 31.71 111.94 32.53C111.62 33.35 111.24 34.29 110.8 35.35C110.36 36.41 109.9 37.5 109.42 38.62C108.94 39.74 108.47 40.8 108.01 41.8C107.57 42.78 107.18 43.59 106.84 44.23C106.16 45.55 105.45 46.66 104.71 47.56C103.97 48.46 103.12 49.14 102.16 49.6C101.2 50.08 100.04 50.32 98.68 50.32ZM121.46 43.3C119.46 43.3 117.89 42.98 116.75 42.34C115.63 41.7 114.84 40.83 114.38 39.73C113.94 38.63 113.72 37.39 113.72 36.01C113.72 34.61 113.95 33.36 114.41 32.26C114.89 31.16 115.69 30.29 116.81 29.65C117.93 28.99 119.48 28.66 121.46 28.66C123.44 28.66 124.99 28.99 126.11 29.65C127.23 30.29 128.02 31.16 128.48 32.26C128.96 33.36 129.2 34.61 129.2 36.01C129.2 37.39 128.97 38.63 128.51 39.73C128.07 40.83 127.29 41.7 126.17 42.34C125.05 42.98 123.48 43.3 121.46 43.3ZM121.46 40.27C122.3 40.27 122.97 40.15 123.47 39.91C123.99 39.65 124.36 39.21 124.58 38.59C124.82 37.97 124.94 37.11 124.94 36.01C124.94 34.91 124.82 34.05 124.58 33.43C124.36 32.79 123.99 32.34 123.47 32.08C122.97 31.8 122.3 31.66 121.46 31.66C120.62 31.66 119.94 31.8 119.42 32.08C118.92 32.36 118.55 32.82 118.31 33.46C118.09 34.1 117.98 34.96 117.98 36.04C117.98 37.1 118.09 37.94 118.31 38.56C118.55 39.18 118.92 39.62 119.42 39.88C119.94 40.14 120.62 40.27 121.46 40.27ZM137.485 43.3C136.325 43.3 135.335 43.1 134.515 42.7C133.695 42.28 133.075 41.57 132.655 40.57C132.235 39.55 132.025 38.14 132.025 36.34V30.76C132.025 30.12 131.955 29.66 131.815 29.38C131.695 29.1 131.565 28.96 131.425 28.96H136.945C136.805 28.96 136.655 29.1 136.495 29.38C136.355 29.66 136.285 30.12 136.285 30.76V36.76C136.285 38.02 136.515 38.92 136.975 39.46C137.455 40 138.005 40.27 138.625 40.27C139.505 40.27 140.185 40.07 140.665 39.67C141.145 39.25 141.485 38.71 141.685 38.05C141.885 37.37 141.985 36.66 141.985 35.92V30.76C141.985 30.12 141.915 29.67 141.775 29.41C141.655 29.13 141.525 28.98 141.385 28.96L146.245 28.96V41.2C146.245 41.84 146.305 42.3 146.425 42.58C146.565 42.86 146.705 43 146.845 43H141.985V41.83L142.045 41.23L141.985 41.17C141.785 41.47 141.535 41.75 141.235 42.01C140.935 42.27 140.595 42.5 140.215 42.7C139.835 42.88 139.415 43.02 138.955 43.12C138.495 43.24 138.005 43.3 137.485 43.3ZM164.214 43.3C162.134 43.3 160.494 42.98 159.294 42.34C158.114 41.7 157.284 40.83 156.804 39.73C156.324 38.63 156.084 37.39 156.084 36.01C156.084 33.57 156.744 31.74 158.064 30.52C159.404 29.3 161.354 28.69 163.914 28.69C165.254 28.69 166.474 28.79 167.574 28.99C168.694 29.19 169.514 29.38 170.034 29.56V30.46L170.634 33.67C170.194 33.25 169.394 32.82 168.234 32.38C167.094 31.92 165.724 31.69 164.124 31.69C163.264 31.69 162.544 31.85 161.964 32.17C161.404 32.47 160.984 32.94 160.704 33.58C160.444 34.22 160.314 35.04 160.314 36.04C160.314 37.02 160.464 37.82 160.764 38.44C161.064 39.06 161.554 39.51 162.234 39.79C162.914 40.07 163.814 40.21 164.934 40.21C166.354 40.21 167.524 40.03 168.444 39.67C169.384 39.29 170.014 38.92 170.334 38.56V39.46L170.634 41.86C170.254 42.18 169.504 42.5 168.384 42.82C167.284 43.14 165.894 43.3 164.214 43.3ZM178.934 43.3C177.134 43.3 175.694 42.95 174.614 42.25C173.554 41.53 173.024 40.38 173.024 38.8C173.024 37.7 173.304 36.81 173.864 36.13C174.424 35.45 175.184 34.95 176.144 34.63C177.124 34.29 178.234 34.12 179.474 34.12C180.394 34.12 181.174 34.2 181.814 34.36C182.474 34.52 183.004 34.69 183.404 34.87C183.804 35.05 184.064 35.18 184.184 35.26C184.184 34.42 184.094 33.74 183.914 33.22C183.734 32.68 183.404 32.29 182.924 32.05C182.464 31.79 181.814 31.66 180.974 31.66C179.754 31.66 178.674 31.78 177.734 32.02C176.794 32.26 176.024 32.54 175.424 32.86C174.844 33.18 174.444 33.45 174.224 33.67V32.77L173.924 29.83C174.064 29.75 174.434 29.62 175.034 29.44C175.634 29.26 176.454 29.09 177.494 28.93C178.534 28.75 179.774 28.66 181.214 28.66C183.194 28.66 184.704 28.95 185.744 29.53C186.784 30.09 187.494 30.9 187.874 31.96C188.274 33.02 188.474 34.3 188.474 35.8V41.2C188.474 41.76 188.534 42.17 188.654 42.43C188.794 42.67 188.934 42.86 189.074 43H184.214V42.37L184.274 41.8L184.214 41.74C184.054 41.92 183.824 42.1 183.524 42.28C183.224 42.46 182.854 42.63 182.414 42.79C181.974 42.93 181.464 43.05 180.884 43.15C180.304 43.25 179.654 43.3 178.934 43.3ZM180.344 40.27C181.184 40.27 181.884 40.21 182.444 40.09C183.024 39.95 183.464 39.77 183.764 39.55C184.064 39.31 184.214 39.03 184.214 38.71C184.214 38.25 183.864 37.87 183.164 37.57C182.484 37.27 181.554 37.12 180.374 37.12C179.234 37.12 178.424 37.28 177.944 37.6C177.484 37.92 177.254 38.32 177.254 38.8C177.254 39.4 177.524 39.8 178.064 40C178.604 40.18 179.364 40.27 180.344 40.27ZM191.543 43C191.683 43 191.813 42.86 191.933 42.58C192.073 42.3 192.143 41.84 192.143 41.2V31.06C192.143 30.42 192.073 29.97 191.933 29.71C191.813 29.43 191.683 29.28 191.543 29.26C192.423 29.26 193.323 29.2 194.243 29.08C195.163 28.94 195.883 28.8 196.403 28.66V30.49L196.343 30.88L196.403 30.94C196.463 30.8 196.653 30.55 196.973 30.19C197.293 29.83 197.753 29.49 198.353 29.17C198.953 28.83 199.693 28.66 200.573 28.66C202.433 28.66 203.853 29.19 204.833 30.25C205.833 31.31 206.333 32.97 206.333 35.23V41.2C206.333 41.84 206.393 42.3 206.513 42.58C206.653 42.86 206.793 43 206.933 43H201.473C201.613 43 201.743 42.86 201.863 42.58C202.003 42.3 202.073 41.84 202.073 41.2V35.32C202.073 34.38 201.973 33.65 201.773 33.13C201.573 32.59 201.293 32.21 200.933 31.99C200.593 31.77 200.193 31.66 199.733 31.66C199.173 31.66 198.633 31.8 198.113 32.08C197.613 32.34 197.203 32.76 196.883 33.34C196.563 33.9 196.403 34.65 196.403 35.59V41.2C196.403 41.84 196.463 42.3 196.583 42.58C196.723 42.86 196.863 43 197.003 43L191.543 43Z" fill="white"/>
<path d="M134.08 65.4C131.973 65.4 130.213 65.1867 128.8 64.76C127.413 64.3067 126.307 63.6667 125.48 62.84C124.653 61.9867 124.067 60.96 123.72 59.76C123.373 58.56 123.2 57.2 123.2 55.68C123.2 52.6667 124.04 50.28 125.72 48.52C127.4 46.76 129.973 45.88 133.44 45.88C135.467 45.88 137.107 46.16 138.36 46.72C139.64 47.28 140.613 48.0267 141.28 48.96C141.947 49.8933 142.4 50.9333 142.64 52.08C142.907 53.2 143.04 54.3333 143.04 55.48V57.36C143.04 57.28 142.667 57.2 141.92 57.12C141.2 57.0133 139.973 56.96 138.24 56.96H128.96C128.96 58.4267 129.4 59.5333 130.28 60.28C131.187 61 132.653 61.36 134.68 61.36C136.387 61.36 137.907 61.16 139.24 60.76C140.6 60.3333 141.587 59.9333 142.2 59.56V60.76L142.6 63.8C142.093 64.1467 141.12 64.5067 139.68 64.88C138.24 65.2267 136.373 65.4 134.08 65.4ZM130.44 53.52H137.36C137.36 52.9333 137.227 52.36 136.96 51.8C136.72 51.24 136.32 50.7867 135.76 50.44C135.2 50.0667 134.427 49.88 133.44 49.88C132.453 49.88 131.653 50.0267 131.04 50.32C130.453 50.6133 130.013 50.9733 129.72 51.4C129.453 51.8267 129.32 52.2667 129.32 52.72C129.32 52.9867 129.4 53.1867 129.56 53.32C129.72 53.4533 130.013 53.52 130.44 53.52ZM154.136 65.4C151.736 65.4 149.816 64.9333 148.376 64C146.963 63.04 146.256 61.5067 146.256 59.4C146.256 57.9333 146.63 56.7467 147.376 55.84C148.123 54.9333 149.136 54.2667 150.416 53.84C151.723 53.3867 153.203 53.16 154.856 53.16C156.083 53.16 157.123 53.2667 157.976 53.48C158.856 53.6933 159.563 53.92 160.096 54.16C160.63 54.4 160.976 54.5733 161.136 54.68C161.136 53.56 161.016 52.6533 160.776 51.96C160.536 51.24 160.096 50.72 159.456 50.4C158.843 50.0533 157.976 49.88 156.856 49.88C155.23 49.88 153.79 50.04 152.536 50.36C151.283 50.68 150.256 51.0533 149.456 51.48C148.683 51.9067 148.15 52.2667 147.856 52.56V51.36L147.456 47.44C147.643 47.3333 148.136 47.16 148.936 46.92C149.736 46.68 150.83 46.4533 152.216 46.24C153.603 46 155.256 45.88 157.176 45.88C159.816 45.88 161.83 46.2667 163.216 47.04C164.603 47.7867 165.55 48.8667 166.056 50.28C166.59 51.6933 166.856 53.4 166.856 55.4V62.6C166.856 63.3467 166.936 63.8933 167.096 64.24C167.283 64.56 167.47 64.8133 167.656 65H161.176V64.16L161.256 63.4L161.176 63.32C160.963 63.56 160.656 63.8 160.256 64.04C159.856 64.28 159.363 64.5067 158.776 64.72C158.19 64.9067 157.51 65.0667 156.736 65.2C155.963 65.3333 155.096 65.4 154.136 65.4ZM156.016 61.36C157.136 61.36 158.07 61.28 158.816 61.12C159.59 60.9333 160.176 60.6933 160.576 60.4C160.976 60.08 161.176 59.7067 161.176 59.28C161.176 58.6667 160.71 58.16 159.776 57.76C158.87 57.36 157.63 57.16 156.056 57.16C154.536 57.16 153.456 57.3733 152.816 57.8C152.203 58.2267 151.896 58.76 151.896 59.4C151.896 60.2 152.256 60.7333 152.976 61C153.696 61.24 154.71 61.36 156.016 61.36ZM170.948 65C171.134 65 171.308 64.8133 171.468 64.44C171.654 64.0667 171.748 63.4533 171.748 62.6V49.08C171.748 48.2267 171.654 47.6267 171.468 47.28C171.308 46.9067 171.134 46.7067 170.948 46.68C172.121 46.68 173.321 46.6 174.548 46.44C175.774 46.2533 176.734 46.0667 177.428 45.88V47.48L177.348 48.16L177.428 48.24C177.614 47.9467 177.908 47.6267 178.308 47.28C178.734 46.9067 179.268 46.5867 179.908 46.32C180.574 46.0267 181.348 45.88 182.228 45.88C183.534 45.88 184.694 46.0667 185.708 46.44C186.721 46.7867 187.441 47.1467 187.868 47.52L186.668 52.88V54.08C186.268 53.52 185.721 52.9467 185.028 52.36C184.361 51.7733 183.614 51.28 182.788 50.88C181.988 50.48 181.161 50.28 180.308 50.28C179.348 50.28 178.628 50.6267 178.148 51.32C177.668 52.0133 177.428 53.1067 177.428 54.6V62.6C177.428 63.4533 177.508 64.0667 177.668 64.44C177.854 64.8133 178.041 65 178.228 65H170.948ZM190.44 65C190.626 65 190.8 64.8133 190.96 64.44C191.146 64.0667 191.24 63.4533 191.24 62.6V49.08C191.24 48.2267 191.146 47.6267 190.96 47.28C190.8 46.9067 190.626 46.7067 190.44 46.68C191.613 46.68 192.813 46.6 194.04 46.44C195.266 46.2533 196.226 46.0667 196.92 45.88V48.32L196.84 48.84L196.92 48.92C197 48.7333 197.253 48.4 197.68 47.92C198.106 47.44 198.72 46.9867 199.52 46.56C200.32 46.1067 201.306 45.88 202.48 45.88C204.96 45.88 206.853 46.5867 208.16 48C209.493 49.4133 210.16 51.6267 210.16 54.64V62.6C210.16 63.4533 210.24 64.0667 210.4 64.44C210.586 64.8133 210.773 65 210.96 65H203.68C203.866 65 204.04 64.8133 204.2 64.44C204.386 64.0667 204.48 63.4533 204.48 62.6V54.76C204.48 53.5067 204.346 52.5333 204.08 51.84C203.813 51.12 203.44 50.6133 202.96 50.32C202.506 50.0267 201.973 49.88 201.36 49.88C200.613 49.88 199.893 50.0667 199.2 50.44C198.533 50.7867 197.986 51.3467 197.56 52.12C197.133 52.8667 196.92 53.8667 196.92 55.12V62.6C196.92 63.4533 197 64.0667 197.16 64.44C197.346 64.8133 197.533 65 197.72 65H190.44Z" fill="#2EA4FF"/>
<path d="M134.08 65.4C131.973 65.4 130.213 65.1867 128.8 64.76C127.413 64.3067 126.307 63.6667 125.48 62.84C124.653 61.9867 124.067 60.96 123.72 59.76C123.373 58.56 123.2 57.2 123.2 55.68C123.2 52.6667 124.04 50.28 125.72 48.52C127.4 46.76 129.973 45.88 133.44 45.88C135.467 45.88 137.107 46.16 138.36 46.72C139.64 47.28 140.613 48.0267 141.28 48.96C141.947 49.8933 142.4 50.9333 142.64 52.08C142.907 53.2 143.04 54.3333 143.04 55.48V57.36C143.04 57.28 142.667 57.2 141.92 57.12C141.2 57.0133 139.973 56.96 138.24 56.96H128.96C128.96 58.4267 129.4 59.5333 130.28 60.28C131.187 61 132.653 61.36 134.68 61.36C136.387 61.36 137.907 61.16 139.24 60.76C140.6 60.3333 141.587 59.9333 142.2 59.56V60.76L142.6 63.8C142.093 64.1467 141.12 64.5067 139.68 64.88C138.24 65.2267 136.373 65.4 134.08 65.4ZM130.44 53.52H137.36C137.36 52.9333 137.227 52.36 136.96 51.8C136.72 51.24 136.32 50.7867 135.76 50.44C135.2 50.0667 134.427 49.88 133.44 49.88C132.453 49.88 131.653 50.0267 131.04 50.32C130.453 50.6133 130.013 50.9733 129.72 51.4C129.453 51.8267 129.32 52.2667 129.32 52.72C129.32 52.9867 129.4 53.1867 129.56 53.32C129.72 53.4533 130.013 53.52 130.44 53.52ZM154.136 65.4C151.736 65.4 149.816 64.9333 148.376 64C146.963 63.04 146.256 61.5067 146.256 59.4C146.256 57.9333 146.63 56.7467 147.376 55.84C148.123 54.9333 149.136 54.2667 150.416 53.84C151.723 53.3867 153.203 53.16 154.856 53.16C156.083 53.16 157.123 53.2667 157.976 53.48C158.856 53.6933 159.563 53.92 160.096 54.16C160.63 54.4 160.976 54.5733 161.136 54.68C161.136 53.56 161.016 52.6533 160.776 51.96C160.536 51.24 160.096 50.72 159.456 50.4C158.843 50.0533 157.976 49.88 156.856 49.88C155.23 49.88 153.79 50.04 152.536 50.36C151.283 50.68 150.256 51.0533 149.456 51.48C148.683 51.9067 148.15 52.2667 147.856 52.56V51.36L147.456 47.44C147.643 47.3333 148.136 47.16 148.936 46.92C149.736 46.68 150.83 46.4533 152.216 46.24C153.603 46 155.256 45.88 157.176 45.88C159.816 45.88 161.83 46.2667 163.216 47.04C164.603 47.7867 165.55 48.8667 166.056 50.28C166.59 51.6933 166.856 53.4 166.856 55.4V62.6C166.856 63.3467 166.936 63.8933 167.096 64.24C167.283 64.56 167.47 64.8133 167.656 65H161.176V64.16L161.256 63.4L161.176 63.32C160.963 63.56 160.656 63.8 160.256 64.04C159.856 64.28 159.363 64.5067 158.776 64.72C158.19 64.9067 157.51 65.0667 156.736 65.2C155.963 65.3333 155.096 65.4 154.136 65.4ZM156.016 61.36C157.136 61.36 158.07 61.28 158.816 61.12C159.59 60.9333 160.176 60.6933 160.576 60.4C160.976 60.08 161.176 59.7067 161.176 59.28C161.176 58.6667 160.71 58.16 159.776 57.76C158.87 57.36 157.63 57.16 156.056 57.16C154.536 57.16 153.456 57.3733 152.816 57.8C152.203 58.2267 151.896 58.76 151.896 59.4C151.896 60.2 152.256 60.7333 152.976 61C153.696 61.24 154.71 61.36 156.016 61.36ZM170.948 65C171.134 65 171.308 64.8133 171.468 64.44C171.654 64.0667 171.748 63.4533 171.748 62.6V49.08C171.748 48.2267 171.654 47.6267 171.468 47.28C171.308 46.9067 171.134 46.7067 170.948 46.68C172.121 46.68 173.321 46.6 174.548 46.44C175.774 46.2533 176.734 46.0667 177.428 45.88V47.48L177.348 48.16L177.428 48.24C177.614 47.9467 177.908 47.6267 178.308 47.28C178.734 46.9067 179.268 46.5867 179.908 46.32C180.574 46.0267 181.348 45.88 182.228 45.88C183.534 45.88 184.694 46.0667 185.708 46.44C186.721 46.7867 187.441 47.1467 187.868 47.52L186.668 52.88V54.08C186.268 53.52 185.721 52.9467 185.028 52.36C184.361 51.7733 183.614 51.28 182.788 50.88C181.988 50.48 181.161 50.28 180.308 50.28C179.348 50.28 178.628 50.6267 178.148 51.32C177.668 52.0133 177.428 53.1067 177.428 54.6V62.6C177.428 63.4533 177.508 64.0667 177.668 64.44C177.854 64.8133 178.041 65 178.228 65H170.948ZM190.44 65C190.626 65 190.8 64.8133 190.96 64.44C191.146 64.0667 191.24 63.4533 191.24 62.6V49.08C191.24 48.2267 191.146 47.6267 190.96 47.28C190.8 46.9067 190.626 46.7067 190.44 46.68C191.613 46.68 192.813 46.6 194.04 46.44C195.266 46.2533 196.226 46.0667 196.92 45.88V48.32L196.84 48.84L196.92 48.92C197 48.7333 197.253 48.4 197.68 47.92C198.106 47.44 198.72 46.9867 199.52 46.56C200.32 46.1067 201.306 45.88 202.48 45.88C204.96 45.88 206.853 46.5867 208.16 48C209.493 49.4133 210.16 51.6267 210.16 54.64V62.6C210.16 63.4533 210.24 64.0667 210.4 64.44C210.586 64.8133 210.773 65 210.96 65H203.68C203.866 65 204.04 64.8133 204.2 64.44C204.386 64.0667 204.48 63.4533 204.48 62.6V54.76C204.48 53.5067 204.346 52.5333 204.08 51.84C203.813 51.12 203.44 50.6133 202.96 50.32C202.506 50.0267 201.973 49.88 201.36 49.88C200.613 49.88 199.893 50.0667 199.2 50.44C198.533 50.7867 197.986 51.3467 197.56 52.12C197.133 52.8667 196.92 53.8667 196.92 55.12V62.6C196.92 63.4533 197 64.0667 197.16 64.44C197.346 64.8133 197.533 65 197.72 65H190.44Z" fill="#2EA4FF"/>
<path d="M77.5 65C77.8267 65 78.1533 64.6733 78.48 64.02C78.8067 63.3667 78.97 62.2933 78.97 60.8V27.2C78.97 25.7067 78.8067 24.6567 78.48 24.05C78.1533 23.3967 77.8267 23.0467 77.5 23H91.22C90.8933 23 90.5667 23.3267 90.24 23.98C89.9133 24.6333 89.75 25.73 89.75 27.27V55.06C89.75 56.0867 89.8667 56.7167 90.1 56.95C90.38 57.1367 91.22 57.23 92.62 57.23H109.49C112.197 57.23 114.367 56.9267 116 56.32C117.68 55.6667 118.777 55.0367 119.29 54.43L117.19 62.83V65H77.5Z" fill="#2EA4FF"/>
<path d="M77.5 65C77.8267 65 78.1533 64.6733 78.48 64.02C78.8067 63.3667 78.97 62.2933 78.97 60.8V27.2C78.97 25.7067 78.8067 24.6567 78.48 24.05C78.1533 23.3967 77.8267 23.0467 77.5 23H91.22C90.8933 23 90.5667 23.3267 90.24 23.98C89.9133 24.6333 89.75 25.73 89.75 27.27V55.06C89.75 56.0867 89.8667 56.7167 90.1 56.95C90.38 57.1367 91.22 57.23 92.62 57.23H109.49C112.197 57.23 114.367 56.9267 116 56.32C117.68 55.6667 118.777 55.0367 119.29 54.43L117.19 62.83V65H77.5Z" fill="#2EA4FF"/>
<path d="M25.1 50C25.26 50 25.43 49.87 25.61 49.61C25.79 49.33 25.88 48.86 25.88 48.2L25.85 42.02C25.29 41.32 24.68 40.57 24.02 39.77C23.36 38.97 22.71 38.18 22.07 37.4C21.43 36.62 20.85 35.92 20.33 35.3C19.83 34.66 19.44 34.18 19.16 33.86C18.6 33.18 18.13 32.7 17.75 32.42C17.39 32.14 17.14 32 17 32H24.08C23.94 32.02 23.89 32.17 23.93 32.45C23.97 32.73 24.22 33.2 24.68 33.86C24.9 34.16 25.15 34.53 25.43 34.97C25.73 35.39 26.04 35.85 26.36 36.35C26.68 36.85 26.99 37.34 27.29 37.82C27.61 38.3 27.9 38.74 28.16 39.14H28.19C28.49 38.7 28.79 38.26 29.09 37.82C29.39 37.36 29.69 36.91 29.99 36.47C30.29 36.03 30.59 35.59 30.89 35.15C31.19 34.69 31.49 34.24 31.79 33.8C32.25 33.12 32.5 32.65 32.54 32.39C32.58 32.13 32.53 32 32.39 32H39.29C39.17 32.02 38.94 32.16 38.6 32.42C38.26 32.68 37.82 33.13 37.28 33.77C36.98 34.11 36.56 34.6 36.02 35.24C35.5 35.86 34.92 36.57 34.28 37.37C33.64 38.15 32.98 38.95 32.3 39.77C31.64 40.57 31.03 41.32 30.47 42.02V48.2C30.47 48.86 30.53 49.33 30.65 49.61C30.79 49.87 30.93 50 31.07 50H25.1Z" fill="white"/>
<path d="M51.49 52.3C48.05 52.3 45.47 51.56 43.75 50.08C42.05 48.58 41.2 46.22 41.2 43C41.2 41.14 41.55 39.52 42.25 38.14C42.95 36.74 44.06 35.65 45.58 34.87C47.1 34.09 49.07 33.7 51.49 33.7C53.39 33.7 54.97 33.8 56.23 34C57.49 34.2 58.34 34.4 58.78 34.6V35.5L59.38 38.8C59 38.54 58.43 38.27 57.67 37.99C56.93 37.71 56.04 37.48 55 37.3C53.96 37.1 52.81 37 51.55 37C50.17 37 49.05 37.22 48.19 37.66C47.35 38.1 46.73 38.77 46.33 39.67C45.95 40.55 45.76 41.66 45.76 43C45.76 44.34 45.95 45.45 46.33 46.33C46.73 47.21 47.41 47.87 48.37 48.31C49.35 48.75 50.7 48.97 52.42 48.97C54.14 48.97 55.57 48.73 56.71 48.25C57.87 47.77 58.66 47.31 59.08 46.87V47.77L59.38 50.8C59.04 51.12 58.21 51.45 56.89 51.79C55.59 52.13 53.79 52.3 51.49 52.3Z" fill="white"/>
<path d="M51.49 52.3C48.05 52.3 45.47 51.56 43.75 50.08C42.05 48.58 41.2 46.22 41.2 43C41.2 41.14 41.55 39.52 42.25 38.14C42.95 36.74 44.06 35.65 45.58 34.87C47.1 34.09 49.07 33.7 51.49 33.7C53.39 33.7 54.97 33.8 56.23 34C57.49 34.2 58.34 34.4 58.78 34.6V35.5L59.38 38.8C59 38.54 58.43 38.27 57.67 37.99C56.93 37.71 56.04 37.48 55 37.3C53.96 37.1 52.81 37 51.55 37C50.17 37 49.05 37.22 48.19 37.66C47.35 38.1 46.73 38.77 46.33 39.67C45.95 40.55 45.76 41.66 45.76 43C45.76 44.34 45.95 45.45 46.33 46.33C46.73 47.21 47.41 47.87 48.37 48.31C49.35 48.75 50.7 48.97 52.42 48.97C54.14 48.97 55.57 48.73 56.71 48.25C57.87 47.77 58.66 47.31 59.08 46.87V47.77L59.38 50.8C59.04 51.12 58.21 51.45 56.89 51.79C55.59 52.13 53.79 52.3 51.49 52.3Z" fill="white"/>
<path d="M40.1604 57.5778C40.1591 57.4378 40.0179 57.2991 39.7367 57.1615C39.4555 57.024 38.9949 56.958 38.3549 56.9636L23.9555 57.0892C23.3155 57.0948 22.8661 57.1687 22.6074 57.311C22.3286 57.4534 22.1798 57.5947 22.1611 57.7349L22.1097 51.8551C22.111 51.9951 22.2522 52.1339 22.5334 52.2714C22.8146 52.409 23.2852 52.4749 23.9452 52.4691L35.8547 52.3652C36.2947 52.3614 36.5643 52.309 36.6634 52.2081C36.7423 52.0874 36.7792 51.7271 36.7739 51.1271L36.7109 43.8974C36.7007 42.7375 36.5626 41.8086 36.2965 41.1109C36.0102 40.3934 35.7362 39.9258 35.4742 39.708L39.082 40.5766L40.0119 40.5685L40.1604 57.5778Z" fill="white"/>
</svg>
