<svg width="137" height="128" viewBox="0 0 137 128" fill="none" xmlns="http://www.w3.org/2000/svg">
<rect x="41.3126" width="108" height="86.5805" rx="13" transform="rotate(28.5 41.3126 0)" fill="#2EA4FF"/>
<path d="M46.93 73C47.2447 73 47.579 72.7443 47.933 72.233C48.287 71.6823 48.464 70.758 48.464 69.46L48.405 57.306C47.3037 55.9293 46.104 54.4543 44.806 52.881C43.508 51.3077 42.2297 49.754 40.971 48.22C39.7123 46.686 38.5717 45.3093 37.549 44.09C36.5657 42.8313 35.7987 41.8873 35.248 41.258C34.1467 39.9207 33.2223 38.9767 32.475 38.426C31.767 37.8753 31.2753 37.6 31 37.6H44.924C44.6487 37.6393 44.5503 37.9343 44.629 38.485C44.7077 39.0357 45.1993 39.96 46.104 41.258C46.5367 41.848 47.0283 42.5757 47.579 43.441C48.169 44.267 48.7787 45.1717 49.408 46.155C50.0373 47.1383 50.647 48.102 51.237 49.046C51.8663 49.99 52.4367 50.8553 52.948 51.642H53.007C53.597 50.7767 54.187 49.9113 54.777 49.046C55.367 48.1413 55.957 47.2563 56.547 46.391C57.137 45.5257 57.727 44.6603 58.317 43.795C58.907 42.8903 59.497 42.0053 60.087 41.14C60.9917 39.8027 61.4833 38.8783 61.562 38.367C61.6407 37.8557 61.5423 37.6 61.267 37.6H74.837C74.601 37.6393 74.1487 37.9147 73.48 38.426C72.8113 38.9373 71.946 39.8223 70.884 41.081C70.294 41.7497 69.468 42.7133 68.406 43.972C67.3833 45.1913 66.2427 46.5877 64.984 48.161C63.7253 49.695 62.4273 51.2683 61.09 52.881C59.792 54.4543 58.5923 55.9293 57.491 57.306V69.46C57.491 70.758 57.609 71.6823 57.845 72.233C58.1203 72.7443 58.3957 73 58.671 73H46.93Z" fill="white"/>
<path d="M97.597 82.59C90.8317 82.59 85.7577 81.1347 82.375 78.224C79.0317 75.274 77.36 70.6327 77.36 64.3C77.36 60.642 78.0483 57.456 79.425 54.742C80.8017 51.9887 82.9847 49.845 85.974 48.311C88.9633 46.777 92.8377 46.01 97.597 46.01C101.334 46.01 104.441 46.2067 106.919 46.6C109.397 46.9933 111.069 47.3867 111.934 47.78V49.55L113.114 56.04C112.367 55.5287 111.246 54.9977 109.751 54.447C108.296 53.8963 106.545 53.444 104.5 53.09C102.455 52.6967 100.193 52.5 97.715 52.5C95.001 52.5 92.7983 52.9327 91.107 53.798C89.455 54.6633 88.2357 55.981 87.449 57.751C86.7017 59.4817 86.328 61.6647 86.328 64.3C86.328 66.9353 86.7017 69.1183 87.449 70.849C88.2357 72.5797 89.573 73.8777 91.461 74.743C93.3883 75.6083 96.0433 76.041 99.426 76.041C102.809 76.041 105.621 75.569 107.863 74.625C110.144 73.681 111.698 72.7763 112.524 71.911V73.681L113.114 79.64C112.445 80.2693 110.813 80.9183 108.217 81.587C105.66 82.2557 102.12 82.59 97.597 82.59Z" fill="white"/>
<path d="M73.3125 88.2144C73.3101 87.9391 73.0324 87.6662 72.4793 87.3957C71.9263 87.1251 71.0204 86.9954 69.7618 87.0064L41.4429 87.2535C40.1843 87.2645 39.3005 87.4099 38.7916 87.6897C38.2434 87.9698 37.9508 88.2477 37.9138 88.5233L37.8129 76.9598C37.8153 77.2351 38.0931 77.508 38.6461 77.7785C39.1992 78.0491 40.1247 78.1787 41.4226 78.1673L64.8447 77.9629C65.71 77.9554 66.2401 77.8524 66.4351 77.654C66.5903 77.4167 66.6628 76.708 66.6525 75.5281L66.5284 61.3096C66.5085 59.0284 66.2369 57.2017 65.7136 55.8295C65.1506 54.4184 64.6115 53.4987 64.0965 53.0705L71.1916 54.7787L73.0206 54.7627L73.3125 88.2144Z" fill="white"/>
</svg>
